<?xml version="1.0" encoding="utf-8"?>
<!-- Designed by Vexels.com - 2016 All Rights Reserved - https://vexels.com/terms-and-conditions/  -->

<svg version="1.1" id="Layer_1" xmlns="http://www.w3.org/2000/svg" xmlns:xlink="http://www.w3.org/1999/xlink" x="0px" y="0px"
	 width="1200px" height="1200px" viewBox="0 0 1200 1200" enable-background="new 0 0 1200 1200" xml:space="preserve">
<g>
	<g>
		<defs>
			<path id="SVGID_1_" d="M1035.948,540.621c0,270.962-219.659,490.621-490.621,490.621c-270.983,0-490.641-219.659-490.641-490.621
				S274.344,50,545.327,50C816.289,50,1035.948,269.659,1035.948,540.621z"/>
		</defs>
		<use xlink:href="#SVGID_1_"  overflow="visible" fill="#87CEDB"/>
		<clipPath id="SVGID_2_">
			<use xlink:href="#SVGID_1_"  overflow="visible"/>
		</clipPath>
		<linearGradient id="SVGID_3_" gradientUnits="userSpaceOnUse" x1="1078.4142" y1="970.2377" x2="619.9225" y2="590.3442">
			<stop  offset="0" style="stop-color:#FFFFFF"/>
			<stop  offset="0.0718" style="stop-color:#DFDFDF"/>
			<stop  offset="0.2156" style="stop-color:#A5A5A5"/>
			<stop  offset="0.3593" style="stop-color:#727272"/>
			<stop  offset="0.4998" style="stop-color:#494949"/>
			<stop  offset="0.6362" style="stop-color:#292929"/>
			<stop  offset="0.7674" style="stop-color:#121212"/>
			<stop  offset="0.8912" style="stop-color:#050505"/>
			<stop  offset="1" style="stop-color:#000000"/>
		</linearGradient>
		<polygon opacity="0.5" clip-path="url(#SVGID_2_)" fill="url(#SVGID_3_)" points="323.046,632.128 702.921,1016.015 
			1081.797,1150 1145.314,883.756 1065.696,651.018 784.415,369.737 500.258,336.82 521.129,376.182 495.309,420.072 
			454.326,426.579 531.554,505.913 552.488,526.089 433.434,545.569 287.886,548.35 446.986,586.469 429.179,595.377 
			382.446,597.609 		"/>
	</g>
	<g>
		<polygon fill="#253147" points="349.087,568.904 338.136,406.761 747.864,408.951 745.674,562.333 		"/>
		<path fill="#FAB30B" d="M640.435,300.302H450.166c-103.027,0-186.573,83.524-186.573,186.573v8.761
			c0,103.048,83.546,186.594,186.573,186.594h133.586l112.409,98.688l-7.508-105.027c79.671-21.25,138.377-93.886,138.377-180.255
			v-8.761C827.03,383.826,743.504,300.302,640.435,300.302z M415.385,538.093c-24.272,0-43.974-19.712-43.974-43.995
			c0-24.304,19.701-43.995,43.974-43.995c24.304,0,44.006,19.692,44.006,43.995C459.391,518.381,439.688,538.093,415.385,538.093z
			 M535.797,538.093c-24.293,0-44.005-19.712-44.005-43.995c0-24.304,19.712-43.995,44.005-43.995
			c24.293,0,44.006,19.692,44.006,43.995C579.803,518.381,560.09,538.093,535.797,538.093z M658.379,538.093
			c-24.294,0-43.995-19.712-43.995-43.995c0-24.304,19.701-43.995,43.995-43.995c24.272,0,43.984,19.692,43.984,43.995
			C702.363,518.381,682.651,538.093,658.379,538.093z"/>
		<path opacity="0.5" fill="#FFFFFF" d="M305.335,389.765c0,0,32.444-59.79,95.561-68.909c0,0-47.344,45.595-47.344,74.974
			C353.551,395.831,323.752,405.961,305.335,389.765z"/>
		<path opacity="0.2" d="M596.999,683.114l60.433-4.738c0,0-32.001,22.513-7.119,48.586L596.999,683.114z"/>
		<path opacity="0.4" fill="#FFFFFF" d="M414.511,457.98c0,0-21.313-4.739-35.539,28.431c0,0,13.026,5.918,21.323,4.739
			C400.295,491.15,393.177,467.457,414.511,457.98z"/>
		<path opacity="0.4" fill="#FFFFFF" d="M535.377,457.98c0,0-21.313-4.739-35.539,28.431c0,0,13.026,5.918,21.323,4.739
			C521.16,491.15,514.042,467.457,535.377,457.98z"/>
		<path opacity="0.4" fill="#FFFFFF" d="M659.789,457.98c0,0-21.312-4.739-35.539,28.431c0,0,13.026,5.918,21.324,4.739
			C645.574,491.15,638.456,467.457,659.789,457.98z"/>
	</g>
</g>
</svg>
